<svg xmlns="http://www.w3.org/2000/svg" viewBox="0 0 512 512"><path  d="M357.344 49.996L326 51.332l-45.328 54.664-24.672 4-29.328-3.328L182 45.996 11.664 123.004l36 112 64.664-17.336 6.672 240h270.656l4-243.336 70.672 27.336 36-110z"/><path d="M362.672 42.66h-53.328c0 29.414-23.938 53.336-53.344 53.336s-53.328-23.922-53.328-53.336h-53.336L0 127.996l42.672 117.336 64-21.336V469.34h298.672V223.996l64 21.336L512 127.996 362.672 42.66zm93.703 175.867l-44.297-14.766L384 194.395v253.602H128V194.395l-28.078 9.367-44.297 14.766-29.43-80.93L155 63.996h29.43c9.18 30.844 37.75 53.336 71.57 53.336 33.828 0 62.391-22.492 71.562-53.336H357l128.812 73.602-29.437 80.929z"/></svg>