<svg height="464pt" viewBox="-16 0 464 464.8" width="464pt" xmlns="http://www.w3.org/2000/svg"><path d="m86.929688 0v16.265625c-.023438 15.742187 2.144531 31.414063 6.449218 46.558594l9.4375 33.191406 72.050782-71.910156-12.21875-6.128907c-23.5-11.792968-49.425782-17.945312-75.71875-17.976562zm0 0" fill="#f7a116"/><path d="m299.128906 18.160156-12.261718 6.097656 71.902343 72.101563 9.558594-33.160156c4.34375-15.132813 6.5625-30.796875 6.585937-46.542969v-16.265625c-26.296874-.039063-52.246093 6.046875-75.785156 17.769531zm0 0" fill="#f7a116"/><path d="m106.539062 336.441406c-14.492187-1.789062-27.378906-10.082031-35.011718-22.53125-7.628906-12.449218-9.171875-27.695312-4.191406-41.421875 4.730468-11.929687 3.789062-25.363281-2.566407-36.511719l-1.511719-2.519531c-35.347656 4.523438-62.066406 34.222657-62.839843 69.847657-.777344 35.625 24.625 66.460937 59.738281 72.519531 35.117188 6.058593 69.382812-14.480469 80.589844-48.304688-9.839844 7.242188-22.085938 10.433594-34.207032 8.921875zm0 0" fill="#ee9200"/><path d="m382.34375 424.390625 13.960938-65.871094c4.460937-21.050781-.808594-42.988281-14.34375-59.714843-13.535157-16.726563-33.890626-26.460938-55.40625-26.492188l-192-.265625c-21.519532-.027344-41.902344 9.648437-55.484376 26.339844-13.578124 16.691406-18.910156 38.613281-14.507812 59.675781l13.78125 65.9375h-8c-22.089844-.03125-40.023438 17.851562-40.054688 39.945312l96 .125 208 .296876 96 .128906c.03125-22.089844-17.851562-40.023438-39.945312-40.054688zm0 0" fill="#f7a116"/><path d="m432.464844 464.800781c0-22.09375-17.90625-40-40-40h-8l13.871094-65.890625c5.691406-26.957031-4.667969-54.777344-26.605469-71.445312-38.6875 101.703125-136.984375 152.328125-219.183594 177.335937zm0 0" fill="#f58f00"/><path d="m376.464844 176.800781h32c0 22.089844-17.90625 40-40 40h-32c0-22.09375 17.910156-40 40-40zm0 0" fill="#348fd9"/><path d="m336.464844 216.800781h32c22.09375 0 40 17.90625 40 40h-32c-22.089844 0-40-17.910156-40-40zm0 0" fill="#3086cd"/><path d="m336.464844 168.800781h-208v32.09375l16 263.90625h64v-120h48v120h64l16-263.90625zm0 0" fill="#ffb531"/><path d="m336.464844 176.800781h-208v24.09375c1.886718 32.605469 19.25 62.339844 46.722656 80 10.664062 6.832031 21.597656 13.234375 32.796875 19.203125.488281.253906.960937.542969 1.449219.796875l22.558594 11.90625 24-13.441406 25.792968-14.398437 3.199219-1.808594c29.90625-17.058594 49.246094-47.996094 51.480469-82.351563zm0 0" fill="#348fd9"/><path d="m336.464844 176.800781h-208v24.09375c1.886718 32.605469 19.25 62.339844 46.722656 80 10.664062 6.832031 21.597656 13.234375 32.796875 19.203125.488281.253906.960937.542969 1.449219.796875l22.558594 11.90625 24-13.441406 25.792968-14.398437 3.199219-1.808594c29.90625-17.058594 49.246094-47.996094 51.480469-82.351563zm0 0" fill="#3086cd"/><path d="m269.265625 240.800781h-73.601563c-7.269531 0-14.324218-2.472656-20-7.015625l-59.199218-47.386718c-7.582032-6.070313-11.996094-15.257813-12-24.972657v-59.371093c0-8.488282 3.375-16.628907 9.375-22.628907l45.25-45.25c6-6.003906 14.144531-9.375 22.632812-9.375h101.488282c8.488281 0 16.628906 3.371094 22.628906 9.375l45.25 45.25c6.003906 6 9.375 14.140625 9.375 22.628907v59.371093c0 9.714844-4.414063 18.902344-12 24.972657l-59.199219 47.378906c-5.675781 4.542968-12.730469 7.023437-20 7.023437zm0 0" fill="#ffb531"/><path d="m300.464844 112.800781c-25.054688.449219-47.207032 16.386719-55.597656 40h-24.800782c-8.390625-23.613281-30.542968-39.550781-55.601562-40-24.628906.414063-46.511719 15.828125-55.199219 38.878907-5.179687 13.089843-1.199219 28.027343 9.808594 36.800781l56.589843 45.304687c5.675782 4.542969 12.730469 7.015625 20 7.015625h73.601563c7.269531 0 14.324219-2.472656 20-7.015625l56.625-45.296875c11.007813-8.773437 14.988281-23.710937 9.808594-36.800781-8.691407-23.066406-30.589844-38.484375-55.234375-38.886719zm0 0" fill="#ffd896"/><path d="m224.464844 120.800781h16c8.835937 0 16 7.164063 16 16 0 8.835938-7.164063 16-16 16h-16c-8.835938 0-16-7.164062-16-16 0-8.835937 7.164062-16 16-16zm0 0" fill="#2e3e51"/><path d="m256.464844 184.800781c0 13.253907-10.746094 24-24 24s-24-10.746093-24-24l24-8zm0 0" fill="#e94f4f"/><path d="m192.464844 96.800781c0 8.835938-7.164063 16-16 16-8.835938 0-16-7.164062-16-16 0-8.835937 7.164062-16 16-16 8.835937 0 16 7.164063 16 16zm0 0" fill="#2e3e51"/><path d="m304.464844 96.800781c0 8.835938-7.164063 16-16 16-8.835938 0-16-7.164062-16-16 0-8.835937 7.164062-16 16-16 8.835937 0 16 7.164063 16 16zm0 0" fill="#2e3e51"/><path d="m168.464844 48.800781h16v16h-16zm0 0" fill="#ffd896"/><path d="m280.464844 48.800781h16v16h-16zm0 0" fill="#ffd896"/><path d="m281.808594 156.359375-10.046875 15.089844c-1.808594 2.6875-5.050781 4.03125-8.230469 3.40625l-23.066406-4.617188v-17.4375h-16v17.4375l-23.0625 4.617188c-3.179688.636719-6.425782-.710938-8.226563-3.40625l-10.054687-15.089844-13.3125 8.878906 10.058594 15.082031c5.382812 8.105469 15.136718 12.144532 24.679687 10.222657l27.917969-5.597657 27.921875 5.597657c9.539062 1.945312 19.308593-2.101563 24.679687-10.222657l10.054688-15.082031zm0 0" fill="#2e3e51"/></svg>